<?xml version="1.0" encoding="UTF-8"?>
<svg id="Layer_1" xmlns="http://www.w3.org/2000/svg" version="1.1" viewBox="0 0 945.05 244.5">
  <!-- Generator: Adobe Illustrator 29.8.2, SVG Export Plug-In . SVG Version: 2.1.1 Build 3)  -->
  <defs>
    <style>
      .st0 {
        fill: #fff200;
      }

      .st1 {
        fill: #fff;
      }

      .st2 {
        fill: #034ea2;
      }

      .st3 {
        fill: #58595b;
      }
    </style>
  </defs>
  <rect class="st1" x="16.05" y="25.11" width="294.95" height="200.28"/>
  <path class="st1" d="M163.52,127.14"/>
  <rect class="st2" x="21.72" y="30.6" width="283.6" height="189.07"/>
  <path class="st2" d="M163.52,125.14"/>
  <polyline class="st0" points="157.48 71.79 163.46 67.43 169.45 71.79 167.17 64.73 173.25 60.36 165.75 60.36 163.46 53.22 161.17 60.37 153.68 60.36 159.75 64.73 157.48 71.79"/>
  <polyline class="st0" points="126.51 80.11 132.49 75.75 138.47 80.11 136.2 73.05 142.27 68.68 134.78 68.68 132.49 61.53 130.2 68.69 122.71 68.68 128.78 73.05 126.51 80.11"/>
  <polyline class="st0" points="109.83 84.24 107.54 91.4 100.05 91.4 106.12 95.76 103.85 102.83 109.83 98.46 115.82 102.83 113.54 95.76 119.61 91.4 112.12 91.4 109.83 84.24"/>
  <polyline class="st0" points="101.52 129.39 107.5 133.76 105.23 126.69 111.3 122.33 103.81 122.33 101.52 115.17 99.23 122.34 91.73 122.33 97.81 126.69 95.54 133.76 101.52 129.39"/>
  <polyline class="st0" points="112.12 153.35 109.83 146.19 107.54 153.36 100.05 153.35 106.12 157.72 103.85 164.78 109.83 160.4 115.82 164.78 113.54 157.72 119.61 153.35 112.12 153.35"/>
  <polyline class="st0" points="134.83 176.05 132.53 168.9 130.25 176.06 122.75 176.05 128.83 180.42 126.55 187.48 132.54 183.11 138.52 187.48 136.25 180.42 142.32 176.05 134.83 176.05"/>
  <polyline class="st0" points="165.76 184.28 163.46 177.12 161.18 184.29 153.68 184.28 159.76 188.65 157.48 195.71 163.47 191.34 169.45 195.71 167.17 188.65 173.25 184.28 165.76 184.28"/>
  <polyline class="st0" points="196.69 176.05 194.4 168.9 192.1 176.06 184.62 176.05 190.69 180.42 188.41 187.48 194.4 183.11 200.38 187.48 198.1 180.42 204.18 176.05 196.69 176.05"/>
  <polyline class="st0" points="219.4 153.35 217.1 146.19 214.8 153.36 207.32 153.35 213.4 157.72 211.12 164.78 217.1 160.4 223.09 164.78 220.8 157.72 226.88 153.35 219.4 153.35"/>
  <polyline class="st0" points="235.11 122.24 227.62 122.24 225.32 115.08 223.03 122.25 215.54 122.24 221.62 126.61 219.34 133.67 225.32 129.29 231.3 133.67 229.03 126.61 235.11 122.24"/>
  <polyline class="st0" points="211.12 102.73 217.1 98.36 223.09 102.73 220.8 95.67 226.88 91.31 219.4 91.31 217.1 84.15 214.8 91.32 207.32 91.31 213.4 95.67 211.12 102.73"/>
  <polyline class="st0" points="194.48 61.54 192.2 68.7 184.7 68.68 190.77 73.06 188.5 80.12 194.49 75.75 200.47 80.12 198.2 73.06 204.27 68.68 196.77 68.68 194.48 61.54"/>
  <g>
    <path class="st3" d="M340.38,219.6v-36.51h4.96l19.18,28.66v-28.66h4.63v36.51h-4.96l-19.17-28.69v28.69h-4.63Z"/>
    <path class="st3" d="M394.8,211.09l4.63.57c-.73,2.71-2.08,4.81-4.06,6.3-1.98,1.49-4.5,2.24-7.57,2.24-3.87,0-6.94-1.19-9.2-3.57-2.27-2.38-3.4-5.72-3.4-10.02s1.15-7.9,3.44-10.36,5.26-3.69,8.91-3.69,6.43,1.2,8.67,3.61c2.24,2.41,3.36,5.79,3.36,10.16,0,.27,0,.66-.02,1.2h-19.72c.17,2.91.99,5.13,2.46,6.67s3.32,2.32,5.53,2.32c1.64,0,3.05-.43,4.21-1.29s2.08-2.24,2.76-4.13ZM380.08,203.84h14.77c-.2-2.22-.76-3.89-1.69-5-1.43-1.73-3.28-2.59-5.55-2.59-2.06,0-3.79.69-5.19,2.07-1.4,1.38-2.18,3.22-2.33,5.53Z"/>
    <path class="st3" d="M402.07,219.6l9.66-13.75-8.94-12.7h5.6l4.06,6.2c.76,1.18,1.38,2.17,1.84,2.96.73-1.1,1.4-2.07,2.02-2.91l4.46-6.25h5.35l-9.14,12.45,9.84,14h-5.5l-5.43-8.22-1.44-2.22-6.95,10.43h-5.43Z"/>
    <path class="st3" d="M440.34,215.59l.65,3.96c-1.26.26-2.39.4-3.39.4-1.63,0-2.89-.26-3.79-.77-.9-.51-1.53-1.19-1.89-2.03-.37-.84-.55-2.6-.55-5.29v-15.21h-3.29v-3.49h3.29v-6.55l4.46-2.69v9.24h4.51v3.49h-4.51v15.46c0,1.28.08,2.1.24,2.47.16.37.41.66.77.87.36.22.87.32,1.53.32.5,0,1.15-.06,1.97-.17Z"/>
    <path class="st3" d="M462.38,205.28v-4.28l15.46-.02v13.55c-2.38,1.89-4.82,3.32-7.35,4.27s-5.11,1.43-7.77,1.43c-3.59,0-6.84-.77-9.77-2.3-2.93-1.54-5.14-3.76-6.64-6.66-1.49-2.9-2.24-6.15-2.24-9.74s.74-6.87,2.23-9.95c1.49-3.08,3.62-5.37,6.41-6.86s6-2.24,9.64-2.24c2.64,0,5.03.43,7.16,1.28,2.13.85,3.81,2.05,5.02,3.57s2.13,3.52,2.76,5.98l-4.36,1.2c-.55-1.86-1.23-3.32-2.04-4.38s-1.98-1.91-3.49-2.55c-1.51-.64-3.19-.96-5.03-.96-2.21,0-4.12.34-5.73,1.01-1.61.67-2.91,1.56-3.9,2.65s-1.76,2.3-2.3,3.61c-.93,2.26-1.39,4.71-1.39,7.35,0,3.25.56,5.98,1.68,8.17,1.12,2.19,2.75,3.82,4.89,4.88,2.14,1.06,4.42,1.59,6.82,1.59,2.09,0,4.13-.4,6.13-1.21,1.99-.8,3.5-1.66,4.53-2.58v-6.8h-10.73Z"/>
    <path class="st3" d="M502.5,211.09l4.63.57c-.73,2.71-2.08,4.81-4.06,6.3-1.98,1.49-4.5,2.24-7.57,2.24-3.87,0-6.94-1.19-9.2-3.57-2.27-2.38-3.4-5.72-3.4-10.02s1.15-7.9,3.44-10.36,5.26-3.69,8.91-3.69,6.43,1.2,8.67,3.61c2.24,2.41,3.36,5.79,3.36,10.16,0,.27,0,.66-.02,1.2h-19.72c.17,2.91.99,5.13,2.46,6.67s3.32,2.32,5.53,2.32c1.64,0,3.05-.43,4.21-1.29s2.08-2.24,2.76-4.13ZM487.78,203.84h14.77c-.2-2.22-.76-3.89-1.69-5-1.43-1.73-3.28-2.59-5.55-2.59-2.06,0-3.79.69-5.19,2.07-1.4,1.38-2.18,3.22-2.33,5.53Z"/>
    <path class="st3" d="M512.76,219.6v-26.45h4.04v3.76c1.94-2.9,4.75-4.36,8.42-4.36,1.59,0,3.06.29,4.4.86,1.34.57,2.34,1.32,3,2.25.66.93,1.13,2.03,1.39,3.31.17.83.25,2.28.25,4.36v16.26h-4.48v-16.09c0-1.83-.17-3.19-.52-4.1-.35-.9-.97-1.63-1.86-2.17-.89-.54-1.93-.81-3.12-.81-1.91,0-3.56.61-4.94,1.82-1.39,1.21-2.08,3.51-2.08,6.9v14.44h-4.48Z"/>
    <path class="st3" d="M559.22,211.09l4.63.57c-.73,2.71-2.08,4.81-4.06,6.3-1.98,1.49-4.5,2.24-7.57,2.24-3.87,0-6.94-1.19-9.2-3.57-2.27-2.38-3.4-5.72-3.4-10.02s1.15-7.9,3.44-10.36,5.26-3.69,8.91-3.69,6.43,1.2,8.67,3.61c2.24,2.41,3.36,5.79,3.36,10.16,0,.27,0,.66-.02,1.2h-19.72c.17,2.91.99,5.13,2.46,6.67s3.32,2.32,5.53,2.32c1.64,0,3.05-.43,4.21-1.29s2.08-2.24,2.76-4.13ZM544.51,203.84h14.77c-.2-2.22-.76-3.89-1.69-5-1.43-1.73-3.28-2.59-5.55-2.59-2.06,0-3.79.69-5.19,2.07-1.4,1.38-2.18,3.22-2.33,5.53Z"/>
    <path class="st3" d="M569.43,219.6v-26.45h4.03v4.01c1.03-1.88,1.98-3.11,2.85-3.71.87-.6,1.83-.9,2.88-.9,1.51,0,3.05.48,4.61,1.44l-1.54,4.16c-1.1-.65-2.19-.97-3.29-.97-.98,0-1.86.29-2.64.88-.78.59-1.34,1.41-1.67,2.45-.5,1.59-.75,3.34-.75,5.23v13.85h-4.48Z"/>
    <path class="st3" d="M603.73,216.34c-1.66,1.41-3.26,2.41-4.79,2.99s-3.18.87-4.94.87c-2.91,0-5.14-.71-6.7-2.13-1.56-1.42-2.34-3.23-2.34-5.44,0-1.29.29-2.48.88-3.55.59-1.07,1.36-1.93,2.32-2.58.95-.65,2.03-1.14,3.22-1.47.88-.23,2.21-.46,3.98-.67,3.62-.43,6.28-.95,7.99-1.54.02-.61.02-1,.02-1.17,0-1.83-.42-3.11-1.27-3.86-1.14-1.01-2.85-1.52-5.1-1.52-2.11,0-3.67.37-4.67,1.11-1,.74-1.75,2.05-2.23,3.92l-4.38-.6c.4-1.88,1.05-3.39,1.97-4.54.91-1.15,2.23-2.04,3.96-2.67,1.73-.62,3.73-.93,6-.93s4.09.27,5.5.8c1.41.53,2.45,1.2,3.11,2,.66.8,1.13,1.82,1.39,3.05.15.76.22,2.14.22,4.13v5.98c0,4.17.1,6.8.29,7.91.19,1.1.57,2.16,1.13,3.17h-4.68c-.46-.93-.76-2.02-.9-3.26ZM603.35,206.33c-1.63.66-4.07,1.23-7.32,1.69-1.84.27-3.15.56-3.91.9-.76.33-1.35.82-1.77,1.46-.42.64-.62,1.35-.62,2.13,0,1.2.45,2.19,1.36,2.99.9.8,2.23,1.2,3.97,1.2s3.26-.38,4.61-1.13c1.34-.75,2.33-1.79,2.96-3.1.48-1.01.72-2.51.72-4.48v-1.64Z"/>
    <path class="st3" d="M624.62,215.59l.65,3.96c-1.26.26-2.39.4-3.39.4-1.63,0-2.89-.26-3.79-.77-.9-.51-1.53-1.19-1.89-2.03-.37-.84-.55-2.6-.55-5.29v-15.21h-3.29v-3.49h3.29v-6.55l4.46-2.69v9.24h4.51v3.49h-4.51v15.46c0,1.28.08,2.1.24,2.47.16.37.41.66.77.87.36.22.87.32,1.53.32.5,0,1.15-.06,1.97-.17Z"/>
    <path class="st3" d="M629.03,188.25v-5.15h4.48v5.15h-4.48ZM629.03,219.6v-26.45h4.48v26.45h-4.48Z"/>
    <path class="st3" d="M638.66,206.38c0-4.9,1.36-8.52,4.08-10.88,2.27-1.96,5.05-2.94,8.32-2.94,3.64,0,6.61,1.19,8.92,3.57,2.31,2.38,3.46,5.67,3.46,9.87,0,3.4-.51,6.08-1.53,8.03-1.02,1.95-2.51,3.46-4.46,4.54-1.95,1.08-4.08,1.62-6.39,1.62-3.7,0-6.7-1.19-8.98-3.56-2.28-2.37-3.42-5.79-3.42-10.26ZM643.27,206.38c0,3.39.74,5.92,2.22,7.61,1.48,1.68,3.34,2.53,5.58,2.53s4.08-.85,5.55-2.54c1.48-1.69,2.22-4.27,2.22-7.75,0-3.27-.74-5.75-2.23-7.43-1.49-1.69-3.33-2.53-5.54-2.53s-4.1.84-5.58,2.52-2.22,4.21-2.22,7.59Z"/>
    <path class="st3" d="M668.69,219.6v-26.45h4.04v3.76c1.94-2.9,4.75-4.36,8.42-4.36,1.59,0,3.06.29,4.4.86,1.34.57,2.34,1.32,3,2.25.66.93,1.13,2.03,1.39,3.31.17.83.25,2.28.25,4.36v16.26h-4.48v-16.09c0-1.83-.17-3.19-.52-4.1-.35-.9-.97-1.63-1.86-2.17-.89-.54-1.93-.81-3.12-.81-1.91,0-3.56.61-4.94,1.82-1.39,1.21-2.08,3.51-2.08,6.9v14.44h-4.48Z"/>
    <path class="st3" d="M697.73,219.6v-36.51h26.4v4.31h-21.57v11.18h20.2v4.28h-20.2v12.43h22.41v4.31h-27.24Z"/>
    <path class="st3" d="M755.6,183.1h4.83v21.09c0,3.67-.42,6.58-1.25,8.74s-2.33,3.91-4.5,5.27c-2.17,1.35-5.01,2.03-8.53,2.03s-6.22-.59-8.39-1.77-3.73-2.88-4.66-5.12c-.93-2.23-1.39-5.28-1.39-9.15v-21.09h4.83v21.07c0,3.17.29,5.51.88,7.01.59,1.5,1.6,2.66,3.04,3.47,1.44.81,3.19,1.22,5.27,1.22,3.55,0,6.08-.81,7.6-2.42,1.51-1.61,2.27-4.71,2.27-9.29v-21.07Z"/>
  </g>
  <g>
    <path class="st2" d="M339.17,73.51V31.28h28.95v7.14h-20.43v10h17.63v7.14h-17.63v17.95h-8.53Z"/>
    <path class="st2" d="M395.23,73.51v-4.58c-1.11,1.63-2.58,2.92-4.39,3.86-1.81.94-3.73,1.41-5.75,1.41s-3.9-.45-5.53-1.35c-1.63-.9-2.81-2.17-3.54-3.8-.73-1.63-1.09-3.89-1.09-6.77v-19.36h8.09v14.06c0,4.3.15,6.94.45,7.91s.84,1.74,1.63,2.3c.79.57,1.79.85,3,.85,1.38,0,2.62-.38,3.72-1.14,1.1-.76,1.84-1.7,2.25-2.82.4-1.12.6-3.88.6-8.25v-12.91h8.09v30.59h-7.52Z"/>
    <path class="st2" d="M438.96,73.51h-8.1v-15.61c0-3.3-.17-5.44-.52-6.41-.35-.97-.91-1.72-1.69-2.26-.78-.54-1.71-.81-2.81-.81-1.4,0-2.66.38-3.77,1.15-1.11.77-1.88,1.79-2.29,3.05s-.62,3.61-.62,7.03v13.86h-8.09v-30.59h7.52v4.49c2.67-3.46,6.03-5.19,10.08-5.19,1.79,0,3.42.32,4.9.96,1.48.64,2.6,1.46,3.36,2.46.76,1,1.29,2.13,1.58,3.4s.45,3.08.45,5.44v19.01Z"/>
    <path class="st2" d="M475.23,73.51h-7.52v-4.49c-1.25,1.75-2.72,3.05-4.42,3.9-1.7.85-3.41,1.28-5.14,1.28-3.51,0-6.53-1.42-9.03-4.25-2.51-2.83-3.76-6.78-3.76-11.85s1.22-9.13,3.66-11.83c2.44-2.7,5.52-4.05,9.25-4.05,3.42,0,6.38,1.42,8.87,4.26v-15.21h8.1v42.23ZM453.62,57.55c0,3.27.45,5.63,1.35,7.09,1.31,2.11,3.13,3.17,5.47,3.17,1.86,0,3.45-.79,4.75-2.38,1.31-1.58,1.96-3.95,1.96-7.1,0-3.51-.63-6.04-1.9-7.59-1.27-1.55-2.89-2.32-4.87-2.32s-3.53.76-4.83,2.29c-1.3,1.53-1.95,3.81-1.95,6.84Z"/>
    <path class="st2" d="M500.93,63.78l8.07,1.35c-1.04,2.96-2.67,5.21-4.91,6.76-2.24,1.55-5.04,2.32-8.4,2.32-5.32,0-9.26-1.74-11.81-5.21-2.02-2.78-3.02-6.3-3.02-10.54,0-5.07,1.32-9.04,3.97-11.91,2.65-2.87,6-4.31,10.05-4.31,4.55,0,8.14,1.5,10.77,4.51,2.63,3.01,3.89,7.61,3.77,13.81h-20.28c.06,2.4.71,4.27,1.96,5.6,1.25,1.33,2.8,2,4.67,2,1.27,0,2.33-.35,3.2-1.04s1.52-1.81,1.96-3.34ZM501.39,55.6c-.06-2.34-.66-4.12-1.82-5.34s-2.55-1.83-4.21-1.83c-1.77,0-3.23.64-4.38,1.93-1.15,1.29-1.72,3.03-1.7,5.24h12.1Z"/>
    <path class="st2" d="M544.08,73.51h-7.52v-4.49c-1.25,1.75-2.72,3.05-4.42,3.9-1.7.85-3.41,1.28-5.14,1.28-3.51,0-6.53-1.42-9.03-4.25-2.51-2.83-3.76-6.78-3.76-11.85s1.22-9.13,3.66-11.83c2.44-2.7,5.52-4.05,9.25-4.05,3.42,0,6.38,1.42,8.87,4.26v-15.21h8.1v42.23ZM522.48,57.55c0,3.27.45,5.63,1.35,7.09,1.31,2.11,3.13,3.17,5.47,3.17,1.86,0,3.45-.79,4.75-2.38,1.31-1.58,1.96-3.95,1.96-7.1,0-3.51-.63-6.04-1.9-7.59-1.27-1.55-2.89-2.32-4.87-2.32s-3.53.76-4.83,2.29c-1.3,1.53-1.95,3.81-1.95,6.84Z"/>
    <path class="st2" d="M568.11,73.51V31.28h8.1v15.21c2.5-2.84,5.45-4.26,8.87-4.26,3.73,0,6.81,1.35,9.25,4.05,2.44,2.7,3.66,6.57,3.66,11.62s-1.24,9.25-3.73,12.07c-2.49,2.82-5.51,4.23-9.06,4.23-1.75,0-3.47-.44-5.17-1.31-1.7-.87-3.17-2.17-4.39-3.88v4.49h-7.52ZM576.15,57.55c0,3.17.5,5.51,1.5,7.03,1.4,2.15,3.26,3.23,5.59,3.23,1.79,0,3.31-.76,4.57-2.29,1.26-1.53,1.89-3.93,1.89-7.22,0-3.5-.63-6.02-1.9-7.56-1.27-1.55-2.89-2.32-4.87-2.32s-3.55.75-4.84,2.26c-1.29,1.51-1.93,3.8-1.93,6.87Z"/>
    <path class="st2" d="M600.66,42.92h8.61l7.32,21.72,7.14-21.72h8.38l-10.8,29.44-1.93,5.33c-.71,1.79-1.39,3.15-2.03,4.09-.64.94-1.38,1.7-2.22,2.29-.84.59-1.86,1.04-3.08,1.37-1.22.33-2.6.49-4.13.49s-3.08-.16-4.58-.49l-.72-6.34c1.27.25,2.41.37,3.43.37,1.88,0,3.27-.55,4.18-1.66.9-1.1,1.59-2.51,2.07-4.22l-11.64-30.68Z"/>
    <path class="st2" d="M353.08,113.72v6.45h-5.53v12.33c0,2.5.05,3.95.16,4.36.11.41.35.75.72,1.02.37.27.83.4,1.37.4.75,0,1.83-.26,3.26-.78l.69,6.28c-1.88.81-4.01,1.21-6.4,1.21-1.46,0-2.78-.25-3.95-.73-1.17-.49-2.03-1.12-2.58-1.9-.55-.78-.93-1.83-1.14-3.15-.17-.94-.26-2.84-.26-5.7v-13.34h-3.72v-6.45h3.72v-6.08l8.12-4.72v10.8h5.53Z"/>
    <path class="st2" d="M366.77,102.08v15.53c2.61-3.05,5.73-4.58,9.36-4.58,1.86,0,3.54.35,5.04,1.04s2.63,1.58,3.39,2.65c.76,1.08,1.28,2.27,1.56,3.57.28,1.31.42,3.33.42,6.08v17.95h-8.1v-16.16c0-3.21-.15-5.24-.46-6.11-.31-.86-.85-1.55-1.63-2.06-.78-.51-1.75-.76-2.92-.76-1.34,0-2.54.33-3.6.98-1.06.65-1.83,1.64-2.32,2.95-.49,1.32-.74,3.26-.74,5.83v15.33h-8.09v-42.23h8.09Z"/>
    <path class="st2" d="M412.46,134.58l8.07,1.35c-1.04,2.96-2.67,5.21-4.91,6.75-2.24,1.55-5.04,2.32-8.4,2.32-5.32,0-9.26-1.74-11.81-5.21-2.02-2.79-3.02-6.3-3.02-10.54,0-5.07,1.32-9.04,3.97-11.91,2.65-2.87,6-4.31,10.05-4.31,4.55,0,8.14,1.5,10.77,4.51,2.63,3.01,3.89,7.61,3.77,13.81h-20.28c.06,2.4.71,4.27,1.96,5.6,1.25,1.33,2.8,2,4.67,2,1.27,0,2.33-.35,3.2-1.04s1.52-1.8,1.96-3.34ZM412.92,126.4c-.06-2.34-.66-4.12-1.82-5.34s-2.55-1.83-4.21-1.83c-1.77,0-3.23.64-4.38,1.93-1.15,1.29-1.72,3.03-1.7,5.24h12.1Z"/>
    <path class="st2" d="M444,144.31v-42.23h31.31v7.14h-22.79v9.36h21.2v7.12h-21.2v11.5h23.59v7.12h-32.12Z"/>
    <path class="st2" d="M503.43,144.31v-4.58c-1.11,1.63-2.58,2.92-4.39,3.86-1.81.94-3.73,1.41-5.75,1.41s-3.9-.45-5.53-1.35c-1.63-.9-2.81-2.17-3.54-3.8-.73-1.63-1.09-3.89-1.09-6.77v-19.36h8.09v14.06c0,4.3.15,6.94.45,7.91s.84,1.74,1.63,2.3c.79.57,1.79.85,3,.85,1.38,0,2.62-.38,3.72-1.14,1.1-.76,1.84-1.7,2.25-2.82.4-1.12.6-3.88.6-8.25v-12.91h8.09v30.59h-7.52Z"/>
    <path class="st2" d="M527.09,144.31h-8.1v-30.59h7.52v4.35c1.29-2.05,2.44-3.41,3.47-4.06,1.03-.65,2.19-.98,3.5-.98,1.84,0,3.62.51,5.33,1.53l-2.51,7.06c-1.36-.88-2.63-1.33-3.8-1.33s-2.09.31-2.88.94c-.79.62-1.41,1.75-1.86,3.38-.45,1.63-.68,5.05-.68,10.26v9.45Z"/>
    <path class="st2" d="M540.42,128.58c0-2.69.66-5.29,1.99-7.81,1.33-2.52,3.2-4.44,5.63-5.76,2.43-1.33,5.14-1.99,8.14-1.99,4.63,0,8.42,1.5,11.38,4.51,2.96,3.01,4.44,6.8,4.44,11.39s-1.49,8.47-4.48,11.51c-2.99,3.04-6.75,4.57-11.28,4.57-2.8,0-5.48-.63-8.02-1.9-2.54-1.27-4.48-3.13-5.81-5.57-1.32-2.45-1.99-5.43-1.99-8.95ZM548.72,129.02c0,3.03.72,5.36,2.16,6.97,1.44,1.61,3.22,2.42,5.33,2.42s3.88-.81,5.32-2.42c1.43-1.61,2.15-3.96,2.15-7.03s-.72-5.3-2.15-6.91c-1.43-1.61-3.2-2.42-5.32-2.42s-3.89.81-5.33,2.42c-1.44,1.61-2.16,3.94-2.16,6.97Z"/>
    <path class="st2" d="M578.11,113.72h7.55v4.49c.98-1.54,2.3-2.78,3.97-3.75,1.67-.96,3.52-1.44,5.56-1.44,3.55,0,6.57,1.39,9.05,4.18,2.48,2.79,3.72,6.66,3.72,11.64s-1.25,9.08-3.74,11.91c-2.5,2.83-5.52,4.25-9.08,4.25-1.69,0-3.22-.34-4.59-1.01-1.37-.67-2.82-1.82-4.34-3.46v15.41h-8.1v-42.23ZM586.12,128.5c0,3.44.68,5.98,2.04,7.62,1.36,1.64,3.03,2.46,4.98,2.46s3.45-.75,4.7-2.26c1.25-1.51,1.87-3.98,1.87-7.42,0-3.21-.64-5.59-1.93-7.14-1.29-1.56-2.88-2.33-4.78-2.33s-3.62.76-4.93,2.29c-1.31,1.53-1.96,3.79-1.96,6.78Z"/>
    <path class="st2" d="M632.09,134.58l8.07,1.35c-1.04,2.96-2.67,5.21-4.91,6.75-2.24,1.55-5.04,2.32-8.4,2.32-5.32,0-9.26-1.74-11.81-5.21-2.02-2.79-3.02-6.3-3.02-10.54,0-5.07,1.32-9.04,3.97-11.91,2.65-2.87,6-4.31,10.05-4.31,4.55,0,8.14,1.5,10.77,4.51,2.63,3.01,3.89,7.61,3.77,13.81h-20.28c.06,2.4.71,4.27,1.96,5.6,1.25,1.33,2.8,2,4.67,2,1.27,0,2.33-.35,3.2-1.04s1.52-1.8,1.96-3.34ZM632.55,126.4c-.06-2.34-.66-4.12-1.82-5.34s-2.55-1.83-4.21-1.83c-1.77,0-3.23.64-4.38,1.93-1.15,1.29-1.72,3.03-1.7,5.24h12.1Z"/>
    <path class="st2" d="M653.24,123.05l-7.35-1.33c.83-2.96,2.25-5.15,4.26-6.57,2.02-1.42,5.01-2.13,8.99-2.13,3.61,0,6.3.43,8.07,1.28,1.77.85,3.01,1.94,3.73,3.25.72,1.32,1.08,3.73,1.08,7.25l-.09,9.45c0,2.69.13,4.67.39,5.95.26,1.28.74,2.65,1.46,4.11h-8.01c-.21-.54-.47-1.33-.78-2.39-.13-.48-.23-.8-.29-.95-1.38,1.34-2.86,2.35-4.44,3.03-1.58.67-3.26,1.01-5.04,1.01-3.15,0-5.63-.85-7.45-2.56-1.81-1.71-2.72-3.87-2.72-6.48,0-1.73.41-3.27,1.24-4.62.83-1.35,1.98-2.39,3.47-3.11,1.49-.72,3.63-1.35,6.44-1.89,3.78-.71,6.41-1.37,7.87-1.99v-.81c0-1.56-.38-2.66-1.15-3.33-.77-.66-2.22-.99-4.35-.99-1.44,0-2.56.28-3.37.85s-1.46,1.56-1.96,2.98ZM664.07,129.62c-1.04.35-2.68.76-4.93,1.24s-3.72.95-4.41,1.41c-1.06.75-1.58,1.7-1.58,2.85s.42,2.11,1.27,2.94c.84.83,1.92,1.24,3.23,1.24,1.46,0,2.85-.48,4.18-1.44.98-.73,1.62-1.62,1.93-2.68.21-.69.32-2.01.32-3.95v-1.61Z"/>
    <path class="st2" d="M707.83,144.31h-8.1v-15.61c0-3.3-.17-5.44-.52-6.41-.35-.97-.91-1.72-1.69-2.26-.78-.54-1.71-.81-2.81-.81-1.4,0-2.66.38-3.77,1.15-1.11.77-1.88,1.79-2.29,3.05s-.62,3.61-.62,7.03v13.86h-8.09v-30.59h7.52v4.49c2.67-3.46,6.03-5.19,10.08-5.19,1.79,0,3.42.32,4.9.96,1.48.64,2.6,1.46,3.36,2.46.76,1,1.29,2.13,1.58,3.4s.45,3.08.45,5.44v19.01Z"/>
    <path class="st2" d="M732.43,102.08h8.53v22.87c0,3.63.11,5.98.32,7.06.36,1.73,1.23,3.12,2.61,4.16,1.37,1.05,3.25,1.57,5.63,1.57s4.24-.49,5.47-1.48c1.23-.99,1.97-2.2,2.22-3.64.25-1.44.38-3.83.38-7.17v-23.36h8.53v22.18c0,5.07-.23,8.65-.69,10.75s-1.31,3.86-2.55,5.3c-1.24,1.44-2.9,2.59-4.97,3.44s-4.78,1.28-8.12,1.28c-4.03,0-7.09-.47-9.18-1.4-2.08-.93-3.73-2.14-4.94-3.63-1.21-1.49-2.01-3.05-2.39-4.68-.56-2.42-.84-5.99-.84-10.72v-22.53Z"/>
    <path class="st2" d="M802.87,144.31h-8.1v-15.61c0-3.3-.17-5.44-.52-6.41-.35-.97-.91-1.72-1.69-2.26-.78-.54-1.71-.81-2.81-.81-1.4,0-2.66.38-3.77,1.15-1.11.77-1.88,1.79-2.29,3.05s-.62,3.61-.62,7.03v13.86h-8.09v-30.59h7.52v4.49c2.67-3.46,6.03-5.19,10.08-5.19,1.79,0,3.42.32,4.9.96,1.48.64,2.6,1.46,3.36,2.46.76,1,1.29,2.13,1.58,3.4s.45,3.08.45,5.44v19.01Z"/>
    <path class="st2" d="M811.08,109.57v-7.49h8.1v7.49h-8.1ZM811.08,144.31v-30.59h8.1v30.59h-8.1Z"/>
    <path class="st2" d="M825.6,128.58c0-2.69.66-5.29,1.99-7.81,1.33-2.52,3.2-4.44,5.63-5.76,2.43-1.33,5.14-1.99,8.14-1.99,4.63,0,8.42,1.5,11.38,4.51,2.96,3.01,4.44,6.8,4.44,11.39s-1.49,8.47-4.48,11.51c-2.99,3.04-6.75,4.57-11.28,4.57-2.8,0-5.48-.63-8.02-1.9-2.54-1.27-4.48-3.13-5.81-5.57-1.32-2.45-1.99-5.43-1.99-8.95ZM833.9,129.02c0,3.03.72,5.36,2.16,6.97,1.44,1.61,3.22,2.42,5.33,2.42s3.88-.81,5.32-2.42c1.43-1.61,2.15-3.96,2.15-7.03s-.72-5.3-2.15-6.91c-1.43-1.61-3.2-2.42-5.32-2.42s-3.89.81-5.33,2.42c-1.44,1.61-2.16,3.94-2.16,6.97Z"/>
    <path class="st2" d="M891.34,144.31h-8.1v-15.61c0-3.3-.17-5.44-.52-6.41-.35-.97-.91-1.72-1.69-2.26-.78-.54-1.71-.81-2.81-.81-1.4,0-2.66.38-3.77,1.15-1.11.77-1.88,1.79-2.29,3.05s-.62,3.61-.62,7.03v13.86h-8.09v-30.59h7.52v4.49c2.67-3.46,6.03-5.19,10.08-5.19,1.79,0,3.42.32,4.9.96,1.48.64,2.6,1.46,3.36,2.46.76,1,1.29,2.13,1.58,3.4s.45,3.08.45,5.44v19.01Z"/>
  </g>
</svg>